<svg width="1374.1" height="169.134" viewBox="0 0 1374.1 169.134" fill="none" xmlns="http://www.w3.org/2000/svg">
  <path
     fill="#000000"
     d="m 62.113,3.984 c 30.06,0 51.247,18.832 54.325,46.359 H 89.276 C 86.197,36.217 75.876,26.981 60.664,26.981 c -20.644,0 -32.958,17.023 -32.958,41.47 0,24.265 12.314,41.469 32.958,41.469 15.212,0 25.533,-9.236 28.612,-23.36 h 27.162 C 113.36,114.084 92.173,132.917 62.113,132.917 23.722,132.917 0,107.384 0,68.451 0,29.517 23.722,3.984 62.113,3.984 Z" />
  <path
     fill="#000000"
     d="m 196.118,85.291 c 0,-15.754 -8.872,-26.8 -23.178,-26.8 -14.306,0 -22.998,11.046 -22.998,26.8 0,15.754 8.692,26.802 22.998,26.802 14.306,0 23.178,-11.048 23.178,-26.802 z m -72.253,0 c 0,-28.611 19.377,-47.624 49.075,-47.624 29.698,0 49.074,19.013 49.074,47.624 0,28.793 -19.376,47.626 -49.074,47.626 -29.698,0 -49.075,-19.014 -49.075,-47.626 z" />
  <path
     fill="#000000"
     d="m 243.566,38.752 22.454,67.001 22.092,-67.001 h 26.802 l -33.502,93.077 h -31.69 l -33.5,-93.077 z" />
  <path
     fill="#000000"
     d="M 345.337,131.829 H 319.803 V 38.752 h 25.534 z m 1.992,-117.524 c 0,8.33 -6.338,14.488 -14.668,14.488 -8.511,0 -14.85,-6.158 -14.85,-14.488 0,-8.329 6.339,-14.305 14.85,-14.305 8.33,0 14.668,5.976 14.668,14.305 z" />
  <path
     fill="#000000"
     d="m 423.748,85.472 c 0,-15.935 -8.693,-26.98 -22.636,-26.98 -13.944,0 -22.817,10.864 -22.817,26.798 0,15.938 8.873,26.803 22.817,26.803 13.943,0 22.636,-10.865 22.636,-26.621 z M 448.919,5.07 v 126.76 h -22.275 l -2.535,-12.856 c -6.156,7.967 -15.21,13.943 -28.61,13.943 -24.991,0.183 -43.28,-18.288 -43.28,-47.807 0,-28.792 18.289,-47.444 43.098,-47.444 12.856,0 22.092,5.071 28.068,12.676 V 5.07 Z" />
  <path
     fill="#00d474"
     d="M 537.11,82.214 520.269,34.044 503.61,82.214 Z M 504.877,5.071 h 32.594 l 45.998,126.759 h -29.156 l -9.779,-27.706 h -48.169 l -9.779,27.706 h -28.067 z" />
  <path
     fill="#00d474"
     d="m 625.847,132.917 c -29.335,0 -47.988,-19.014 -47.988,-47.626 0,-28.974 18.833,-47.624 48.169,-47.624 25.171,0 41.288,13.761 44.909,35.854 h -26.438 c -2.174,-9.056 -8.874,-15.03 -18.652,-15.03 -13.4,0 -21.912,10.864 -21.912,26.8 0,15.754 8.512,26.801 21.912,26.801 10.141,0 16.841,-5.977 18.833,-15.573 h 26.257 c -3.441,22.454 -19.738,36.398 -45.09,36.398 z" />
  <path
     fill="#00d474"
     d="M 690.678,60.301 H 675.284 V 38.752 h 15.394 V 12.677 h 25.532 v 26.075 h 21.186 V 60.301 H 716.21 v 40.745 c 0,6.52 2.534,9.235 9.054,9.235 h 13.219 v 21.548 h -21.185 c -17.748,0 -26.62,-8.872 -26.62,-26.617 z" />
  <path
     fill="#00d474"
     d="m 747.537,5.07 h 24.627 l 53.784,79.859 V 5.07 H 852.75 V 131.829 H 827.938 L 774.157,51.972 v 79.857 h -26.62 z" />
  <path
     fill="#00d474"
     d="m 933.7,85.291 c 0,-15.754 -8.88,-26.8 -23.18,-26.8 -14.31,0 -23,11.046 -23,26.8 0,15.754 8.69,26.802 23,26.802 14.3,0 23.18,-11.048 23.18,-26.802 z m -72.26,0 c 0,-28.611 19.38,-47.624 49.08,-47.624 29.7,0 49.07,19.013 49.07,47.624 0,28.793 -19.37,47.626 -49.07,47.626 -29.7,0 -49.08,-19.014 -49.08,-47.626 z" />
  <path
     fill="#00d474"
     d="m 981.87,38.752 18.65,65.553 17.56,-65.553 h 23 l 17.02,65.735 19.02,-65.735 h 26.07 l -30.6,93.077 h -27.16 l -16.3,-56.134 -16.66,56.134 H 985.31 L 954.89,38.752 Z" />
  <path
     fill="#00d474"
     d="m 1102.83,102.676 c 8.69,0 15.39,6.337 15.39,15.211 0,8.692 -6.7,15.03 -15.39,15.03 -8.87,0 -15.39,-6.338 -15.39,-15.03 0,-8.874 6.52,-15.211 15.39,-15.211 z" />
  <path
     fill="#00d474"
     d="m 1190.47,85.291 c 0,-15.754 -8.87,-26.8 -23.17,-26.8 -14.31,0 -23,11.046 -23,26.8 0,15.754 8.69,26.802 23,26.802 14.3,0 23.17,-11.048 23.17,-26.802 z m -72.25,0 c 0,-28.611 19.38,-47.624 49.08,-47.624 29.69,0 49.07,19.013 49.07,47.624 0,28.793 -19.38,47.626 -49.07,47.626 -29.7,0 -49.08,-19.014 -49.08,-47.626 z" />
  <path
     fill="#00d474"
     d="m 1279.93,38.752 v 23.179 h -10.14 c -15.21,0 -21,10.141 -21,24.265 v 45.633 h -25.54 V 38.752 h 23.18 l 2.36,13.944 c 5.07,-8.331 12.31,-13.944 26.8,-13.944 z" />
  <path
     fill="#00d474"
     d="m 1348.93,84.748 c 0,-15.574 -8.7,-26.62 -22.64,-26.62 -13.94,0 -22.82,10.864 -22.82,26.44 0,15.572 8.88,26.256 22.82,26.256 13.94,0 22.64,-10.684 22.64,-26.076 z m 25.17,-45.996 v 90.363 c 0,22.997 -14.13,40.019 -49.8,40.019 -25.9,0 -43.64,-11.771 -44.91,-33.319 h 25.71 c 2.36,8.873 9.42,13.943 21.19,13.943 14.31,0 22.82,-7.063 22.82,-21.548 v -9.78 c -6.16,7.788 -15.39,12.857 -28.43,12.857 -24.99,0.183 -43.28,-18.109 -43.28,-46.9 0,-28.432 18.29,-46.903 43.1,-46.903 13.4,0 22.81,5.975 28.97,14.126 l 2.17,-12.858 z" />
</svg>
