<svg width="833.51703" height="371.32101" viewBox="0 0 833.51703 371.32101" fill="none" xmlns="http://www.w3.org/2000/svg">
  <path
     fill="#ffffff"
     d="m 88.131,5.226 c 39.432,0 67.225,24.705 71.264,60.812 H 123.763 C 119.724,47.51 106.184,35.394 86.229,35.394 c -27.08,0 -43.234,22.33 -43.234,54.4 0,31.83 16.154,54.398 43.234,54.398 19.955,0 33.495,-12.114 37.534,-30.644 h 35.632 C 155.356,149.655 127.563,174.36 88.131,174.36 37.769,174.36 6.652,140.866 6.652,89.794 6.652,38.72 37.769,5.226 88.131,5.226 Z" />
  <path
     fill="#ffffff"
     d="m 259.169,111.885 c 0,-20.667 -11.639,-35.157 -30.407,-35.157 -18.765,0 -30.168,14.49 -30.168,35.157 0,20.667 11.403,35.157 30.168,35.157 18.768,0 30.407,-14.49 30.407,-35.157 z m -94.782,0 c 0,-37.532 25.419,-62.475 64.375,-62.475 38.959,0 64.377,24.943 64.377,62.475 0,37.771 -25.418,62.475 -64.377,62.475 -38.956,0 -64.375,-24.943 -64.375,-62.475 z" />
  <path
     fill="#ffffff"
     d="m 316.661,50.835 29.456,87.893 28.98,-87.893 h 35.157 l -43.946,122.1 h -41.57 l -43.946,-122.1 z" />
  <path
     fill="#ffffff"
     d="m 450.164,172.936 h -33.495 v -122.1 h 33.495 z m 2.613,-154.169 c 0,10.926 -8.315,19.004 -19.243,19.004 -11.164,0 -19.477,-8.078 -19.477,-19.004 C 414.057,7.839 422.37,0 433.534,0 c 10.928,0 19.243,7.839 19.243,18.767 z" />
  <path
     fill="#ffffff"
     d="m 549.351,112.123 c 0,-20.904 -11.402,-35.395 -29.694,-35.395 -18.29,0 -29.93,14.253 -29.93,35.157 0,20.904 11.64,35.158 29.93,35.158 18.292,0 29.694,-14.254 29.694,-34.92 z M 582.371,6.651 v 166.284 h -29.218 l -3.327,-16.866 c -8.076,10.452 -19.952,18.291 -37.533,18.291 -32.781,0.237 -56.773,-23.992 -56.773,-62.712 0,-37.771 23.992,-62.239 56.536,-62.239 16.867,0 28.981,6.652 36.821,16.63 V 6.651 Z" />
  <path
     fill="#00d474"
     d="M 103.096,304.807 81.004,241.619 59.149,304.807 Z M 60.812,203.611 h 42.758 l 60.338,166.284 H 125.664 L 112.836,333.551 H 49.648 L 36.82,369.895 H 0 Z" />
  <path
     fill="#00d474"
     d="m 214.751,371.321 c -38.483,0 -62.951,-24.943 -62.951,-62.475 0,-38.008 24.704,-62.476 63.188,-62.476 33.019,0 54.161,18.053 58.912,47.035 h -34.681 c -2.852,-11.878 -11.642,-19.716 -24.468,-19.716 -17.58,0 -28.744,14.252 -28.744,35.157 0,20.667 11.164,35.157 28.744,35.157 13.302,0 22.09,-7.84 24.704,-20.43 H 273.9 c -4.513,29.457 -25.893,47.748 -59.149,47.748 z" />
  <path
     fill="#00d474"
     d="m 292.378,276.063 h -20.192 v -28.268 h 20.192 v -34.206 h 33.495 v 34.206 h 27.793 v 28.268 h -27.793 v 53.448 c 0,8.552 3.325,12.116 11.876,12.116 h 17.341 v 28.268 h -27.793 c -23.28,0 -34.919,-11.64 -34.919,-34.92 z" />
  <path
     fill="#00d474"
     d="m 376.469,203.611 h 32.307 L 479.329,308.37 V 203.611 h 35.156 V 369.895 H 481.941 L 411.389,265.136 v 104.759 h -34.92 z" />
  <path
     fill="#00d474"
     d="m 615.921,308.845 c 0,-20.666 -11.639,-35.157 -30.407,-35.157 -18.765,0 -30.168,14.491 -30.168,35.157 0,20.667 11.403,35.158 30.168,35.158 18.768,0 30.407,-14.491 30.407,-35.158 z m -94.781,0 c 0,-37.532 25.418,-62.474 64.374,-62.474 38.959,0 64.378,24.942 64.378,62.474 0,37.771 -25.419,62.475 -64.378,62.475 -38.956,0 -64.374,-24.943 -64.374,-62.475 z" />
  <path
     fill="#00d474"
     d="m 674.36,247.795 24.468,85.994 23.043,-85.994 h 30.168 l 22.329,86.231 24.943,-86.231 h 34.206 l -40.145,122.1 H 757.74 l -21.38,-73.64 -21.855,73.64 h -35.632 l -39.908,-122.1 z" />
</svg>
