<svg version="1" xmlns="http://www.w3.org/2000/svg" width="933.333" height="933.333" viewBox="0 0 700.000000 700.000000"><path d="M355.9 19.6c-9.9 3.4-19.2 13.5-22 23.9-1.6 5.9-.6 18.2 1.9 23 1.1 2.2 3.6 7.1 5.6 10.9 4.3 8.2 4.7 13.3 1.3 19.7-4.1 7.8-17 14.4-30.8 15.6-9.1.8-14.7-1.3-23.9-8.8-7.2-5.8-7.5-6.3-8.7-12.1C277.1 81 270 73.4 259.9 71c-9.8-2.4-18.7.6-25.6 8.4-10.7 12.1-7.7 31 6.3 39.2 3.6 2.1 6.6 2.9 14.2 3.6 13.5 1.2 16.3 2.2 22.3 7.5 8.1 7.3 9.5 12.9 6.3 24.1-3.4 11.4-9.8 13.8-22 8-9.2-4.4-20-5-28.6-1.8-8.1 3-15.7 10.2-19.4 18.2-2.4 5.3-2.8 7.6-2.8 14.3 0 10.6 3.4 18.5 11.1 25.5 7.5 6.9 14.4 9.3 24.9 8.8 11.1-.6 17.4-3.7 25.5-12.8 3.4-3.8 7-7.1 8.1-7.3 3.8-1 7.7 1.4 12.2 7.6 5.3 7.5 13 14.9 21.3 20.5 7.5 5.1 11.7 10.1 13.3 15.7 1.8 6.3.5 11.3-5.1 20.1-7.2 11.5-8.2 16.5-5.3 26.3 2.2 7.6 9.2 14.4 16.9 16.7 10.5 3 20 .2 27.2-8 7.5-8.5 8.4-18.3 2.6-31-4.7-10.4-5.3-16-2.3-22 2.7-5.6 7.2-9.3 17.3-13.9 4.2-2 9-4.5 10.6-5.6 4.2-3 9.4-2.8 12 .5 1.7 2.2 2.1 4.1 2.1 10.5 0 10.3 2.6 17.2 9 24.2 7 7.7 14.9 11.1 25.5 11.1 6.7 0 9-.4 14.3-2.8 20.9-9.6 27-37 12-54.1-7.7-8.7-16.8-12.5-30.4-12.5-8.6 0-13-2.4-15.3-8.4-1.2-3.2-1.3-4.8-.2-10 .7-3.3 1.7-11.5 2.1-18.1 1-13.3 3.2-21 7.8-27.8 3.9-5.6 15.2-14.1 27.6-20.9 6.3-3.4 11.1-6.8 13-9.2 2.8-3.4 3.1-4.5 3.1-10.6 0-5.4-.4-7.5-2.1-9.6-3.3-4.5-7-6.7-12.2-7.2-7.6-.7-11.5 1.1-17.5 8.1-8.4 10-15.8 16.9-22.6 21.5-5.6 3.7-7 4.2-12 4.2-10.1-.1-17.9-4.4-22.7-12.5-5.9-10.1-4.3-17.3 6.1-28.4 4-4.4 8.6-10.3 10.2-13.3 2.5-4.8 2.8-6.3 2.8-15.3 0-9.5-.2-10.3-3.4-16.3-3.8-7-9-11.9-16-15.3-6.1-3-19.5-3.6-26.2-1.3z"/><path d="M463.3 160.5c-4.7 2.8-8.3 9.1-8.3 14.5 0 9.1 8.1 17 17.5 17s17.5-7.9 17.5-17c0-13.1-15.2-21.4-26.7-14.5zM70 332v140h-8.2c-15.3.1-22.2 3.2-25.3 11.5-2.2 5.6-1.6 11.3 1.8 16.4 3.9 5.8 7.6 7.1 20.6 7.1H70v141l61.3-.2 61.2-.3.3-70.1.2-70.1h314l.2 70.1.3 70.1 61.3.3 61.2.2V507h11.1c13 0 16.7-1.3 20.6-7.1 3.4-5.1 4-10.8 1.8-16.4-3.1-8.3-10-11.4-25.2-11.5H630V192l-61.2.2-61.3.3-.7 12c-2.5 47.1-21.7 89.3-54.6 120.7-21 19.9-44.9 32.7-73.7 39.4-6.4 1.5-12 1.9-28.5 1.9s-22.1-.4-28.5-1.9c-28.8-6.7-52.7-19.5-73.7-39.4-33-31.4-52.2-73.8-54.7-120.7l-.6-12-61.2-.3L70 192v140zm87 18v122h-52V228h52v122zm438 0v122h-52V228h52v122zm-393.4-24c8.7 11.6 27.7 31 37.2 38l6.1 4.5.1 51.7V472h-52v-78.7c0-43.2.2-78.4.4-78.2.2.2 3.9 5.1 8.2 10.9zM507 393.5V472h-52V368.4l6.8-4.9c9.7-7.1 28.5-26.4 37.2-38.3 4.1-5.6 7.6-10.2 7.8-10.2.1 0 .2 35.3.2 78.5zM302.7 396c5.6 1.6 14.5 3.4 19.7 4.1l9.6 1.3V472h-52v-83.9l6.3 2.5c3.4 1.4 10.8 3.8 16.4 5.4zM420 430v42h-52v-70.6l9.6-1.3c10.4-1.4 26.5-5.6 35.9-9.5 3.3-1.3 6.1-2.5 6.3-2.5.1-.1.2 18.8.2 41.9zM157 559.5V612h-52V507h52v52.5zm438 0V612h-52V507h52v52.5z"/><path d="M272.2 247.1c-12.3 6.1-12.2 24.8.1 30.8 2.4 1.2 5.8 2.1 7.7 2.1 5.4 0 11.7-3.6 14.5-8.4 5.2-8.8 2-20.2-6.8-24.5-5.5-2.7-10.1-2.7-15.5 0z"/></svg>