<svg width="33" height="32" viewBox="0 0 33 32" fill="none" xmlns="http://www.w3.org/2000/svg">
<path d="M32.2059 15.9999C32.2059 24.3999 25.3959 31.2109 16.9949 31.2109C8.59394 31.2109 1.78394 24.3999 1.78394 15.9999C1.78394 7.5979 8.59394 0.788902 16.9949 0.788902C25.3959 0.788902 32.2059 7.5979 32.2059 15.9999Z" fill="#3567FD"/>
<path d="M16.9949 1.578C9.04293 1.578 2.57293 8.047 2.57293 16C2.57293 23.951 9.04293 30.422 16.9949 30.422C24.9469 30.422 31.4179 23.951 31.4179 16C31.4179 8.047 24.9469 1.578 16.9949 1.578ZM16.9949 32C12.7219 32 8.70293 30.336 5.68193 27.312C2.65993 24.291 0.994934 20.273 0.994934 16C0.994934 11.726 2.65993 7.707 5.68193 4.685C8.70293 1.664 12.7219 1.90735e-06 16.9949 1.90735e-06C21.2689 1.90735e-06 25.2869 1.664 28.3079 4.685C31.3309 7.707 32.9949 11.726 32.9949 16C32.9949 20.273 31.3309 24.291 28.3079 27.312C25.2869 30.336 21.2689 32 16.9949 32Z" fill="black"/>
<path d="M19.7831 6.61902C19.7831 8.16002 18.5351 9.40802 16.9951 9.40802C15.4551 9.40802 14.2071 8.16002 14.2071 6.61902C14.2071 5.07802 15.4551 3.83002 16.9951 3.83002C18.5351 3.83002 19.7831 5.07802 19.7831 6.61902Z" fill="white"/>
<path d="M16.9949 4.61902C15.8919 4.61902 14.9959 5.51502 14.9959 6.61902C14.9959 7.72302 15.8919 8.61902 16.9949 8.61902C18.0979 8.61902 18.9949 7.72302 18.9949 6.61902C18.9949 5.51502 18.0979 4.61902 16.9949 4.61902ZM16.9949 10.197C15.0219 10.197 13.4179 8.59202 13.4179 6.61902C13.4179 4.64602 15.0219 3.04102 16.9949 3.04102C18.9679 3.04102 20.5719 4.64602 20.5719 6.61902C20.5719 8.59202 18.9679 10.197 16.9949 10.197Z" fill="black"/>
<path d="M25.1072 12.4491H8.88224C8.04324 12.4491 7.36124 13.1311 7.36124 13.9701C7.36124 14.8101 8.04324 15.4921 8.88224 15.4921H14.4602V18.8061L12.5032 24.9701C12.2492 25.7711 12.6912 26.6251 13.4922 26.8811C13.6462 26.9281 13.8002 26.9511 13.9532 26.9511C14.5982 26.9511 15.1972 26.5371 15.4022 25.8901L16.9952 20.8751L18.5872 25.8901C18.7932 26.5371 19.3922 26.9511 20.0372 26.9511C20.1892 26.9511 20.3442 26.9281 20.4982 26.8811C21.2982 26.6251 21.7422 25.7711 21.4872 24.9701L19.5302 18.8061V15.4921H25.1072C25.9472 15.4921 26.6282 14.8101 26.6282 13.9701C26.6282 13.1311 25.9472 12.4491 25.1072 12.4491Z" fill="white"/>
<path d="M16.9949 20.0858C17.3389 20.0858 17.6419 20.3088 17.7469 20.6348L19.3399 25.6518C19.4359 25.9568 19.7169 26.1618 20.0369 26.1618C20.1109 26.1618 20.1859 26.1498 20.2589 26.1288C20.4449 26.0678 20.5979 25.9408 20.6869 25.7678C20.7769 25.5938 20.7949 25.3948 20.7349 25.2088L18.7779 19.0448C18.7539 18.9668 18.7419 18.8868 18.7419 18.8068V15.4918C18.7419 15.0568 19.0949 14.7028 19.5299 14.7028H25.1069C25.5119 14.7028 25.8399 14.3748 25.8399 13.9708C25.8399 13.5678 25.5119 13.2378 25.1069 13.2378H8.88293C8.47793 13.2378 8.14993 13.5678 8.14993 13.9708C8.14993 14.3748 8.47793 14.7028 8.88293 14.7028H14.4599C14.8949 14.7028 15.2489 15.0568 15.2489 15.4918V18.8068C15.2489 18.8868 15.2359 18.9668 15.2119 19.0448L13.2559 25.2088C13.1949 25.3948 13.2129 25.5938 13.3029 25.7678C13.3919 25.9408 13.5449 26.0678 13.7309 26.1288C13.8049 26.1498 13.8789 26.1618 13.9529 26.1618C14.2729 26.1618 14.5539 25.9568 14.6499 25.6518L16.2429 20.6348C16.3479 20.3088 16.6509 20.0858 16.9949 20.0858ZM20.0369 27.7398C19.0259 27.7398 18.1409 27.0938 17.8359 26.1288L16.9949 23.4818L16.1539 26.1288C15.8489 27.0938 14.9639 27.7398 13.9529 27.7398C13.7169 27.7398 13.4799 27.7028 13.2539 27.6328C12.6659 27.4448 12.1849 27.0408 11.9019 26.4918C11.6179 25.9448 11.5639 25.3178 11.7519 24.7308L13.6709 18.6838V16.2808H8.88293C7.60893 16.2808 6.57193 15.2438 6.57193 13.9708C6.57193 12.6968 7.60893 11.6598 8.88293 11.6598H25.1069C26.3809 11.6598 27.4179 12.6968 27.4179 13.9708C27.4179 15.2438 26.3809 16.2808 25.1069 16.2808H20.3189V18.6838L22.2389 24.7308C22.4259 25.3178 22.3729 25.9448 22.0879 26.4918C21.8049 27.0408 21.3239 27.4448 20.7359 27.6328C20.5099 27.7028 20.2729 27.7398 20.0369 27.7398Z" fill="black"/>
</svg>
