<svg width="33" height="32" viewBox="0 0 33 32" fill="none" xmlns="http://www.w3.org/2000/svg">
<path opacity="0.25" d="M18.2635 20.6462C20.7075 20.6462 22.9085 19.6072 24.4505 17.9492C23.5665 12.5292 18.8635 8.39421 13.1935 8.39421C12.2915 8.39421 11.4145 8.49821 10.5735 8.69721C10.0865 9.76321 9.81348 10.9472 9.81348 12.1972C9.81348 16.8632 13.5975 20.6462 18.2635 20.6462Z" fill="#FF9600"/>
<path d="M24.451 17.9489C22.908 19.6069 20.708 20.6459 18.264 20.6459C13.597 20.6459 9.81299 16.8629 9.81299 12.1969C9.81299 10.9469 10.087 9.76291 10.573 8.69691C5.53499 9.88091 1.78499 14.4019 1.78499 19.8029C1.78499 26.1009 6.89299 31.2109 13.193 31.2109C19.494 31.2109 24.601 26.1009 24.601 19.8029C24.601 19.1719 24.551 18.5529 24.451 17.9489Z" fill="#FF9600"/>
<path d="M24.0525 20.8513L28.7455 25.5443C29.5365 26.3373 30.8225 26.3373 31.6135 25.5443C32.4055 24.7533 32.4065 23.4703 31.6135 22.6773L26.9195 17.9843L24.0525 20.8513Z" fill="#828282"/>
<path d="M18.2635 20.6462C13.5975 20.6462 9.81347 16.8632 9.81347 12.1972C9.81347 7.52922 13.5975 3.74622 18.2635 3.74622C22.9315 3.74622 26.7145 7.52922 26.7145 12.1972C26.7145 16.8632 22.9315 20.6462 18.2635 20.6462ZM18.2635 0.789223C11.9635 0.789223 6.85547 5.89622 6.85547 12.1972C6.85547 18.4982 11.9635 23.6052 18.2635 23.6052C24.5645 23.6052 29.6725 18.4982 29.6715 12.1972C29.6715 5.89622 24.5645 0.789223 18.2635 0.789223Z" fill="#E0E0E0"/>
<path d="M18.2635 4.5349C22.4885 4.5349 25.9255 7.97291 25.9255 12.1969C25.9255 13.6389 25.5255 14.9879 24.8295 16.1399C24.1495 13.9819 22.8705 12.0329 21.1305 10.5409C18.9235 8.64591 16.1055 7.6049 13.1935 7.6049C12.8275 7.6049 12.4625 7.6209 12.0985 7.6539C13.4945 5.7639 15.7385 4.5349 18.2635 4.5349ZM10.6025 12.1969C10.6025 11.2029 10.7925 10.2539 11.1385 9.38091C11.8125 9.24991 12.5025 9.1809 13.1935 9.1809C18.2905 9.1809 22.6075 12.7359 23.6015 17.6869C22.2205 19.0289 20.3375 19.8569 18.2635 19.8569C14.0385 19.8569 10.6025 16.4219 10.6025 12.1969ZM18.2635 21.4349C20.9175 21.4349 23.3125 20.3099 24.9995 18.5139L25.0015 18.5149C25.0295 18.4899 25.0535 18.4609 25.0755 18.4309C26.5825 16.7869 27.5035 14.5979 27.5035 12.1969C27.5035 7.10091 23.3585 2.95691 18.2635 2.95691C14.5345 2.95691 11.3165 5.1779 9.85748 8.3629L9.85448 8.3689H9.85548C9.32248 9.5369 9.02448 10.8319 9.02448 12.1969C9.02448 17.2909 13.1695 21.4349 18.2635 21.4349Z" fill="black"/>
<path d="M31.0555 24.988C30.8225 25.222 30.5095 25.351 30.1795 25.351C29.8485 25.351 29.5365 25.222 29.3025 24.988L25.9685 21.654C26.2865 21.392 26.5935 21.115 26.8885 20.822C27.1835 20.527 27.4605 20.218 27.7205 19.9L31.0555 23.236C31.5385 23.718 31.5385 24.504 31.0555 24.988ZM20.7025 27.31C18.6975 29.316 16.0305 30.422 13.1935 30.422C7.33846 30.422 2.57446 25.658 2.57446 19.802C2.57446 16.695 3.89746 13.867 6.07046 11.91C6.06846 12.004 6.06646 12.099 6.06646 12.197C6.06646 18.922 11.5385 24.394 18.2635 24.394C19.9935 24.394 21.6695 24.035 23.2065 23.355C22.6855 24.826 21.8395 26.174 20.7025 27.31ZM18.2635 1.578C24.1185 1.578 28.8825 6.342 28.8825 12.197C28.8835 15.033 27.7795 17.699 25.7735 19.705C23.7675 21.711 21.1005 22.816 18.2635 22.816C12.4085 22.816 7.64446 18.052 7.64446 12.197C7.64446 6.342 12.4085 1.576 18.2635 1.578ZM32.1715 22.119L28.6505 18.599C29.8295 16.693 30.4605 14.494 30.4605 12.197C30.4605 5.47 24.9905 1.90735e-06 18.2635 1.90735e-06C12.3835 1.90735e-06 7.46046 4.183 6.31746 9.732C5.32646 10.408 4.43246 11.23 3.67446 12.175C1.94746 14.328 0.99646 17.037 0.99646 19.802C0.99646 26.527 6.46846 32 13.1935 32C16.4515 32 19.5155 30.73 21.8185 28.426C23.3705 26.875 24.4515 24.978 24.9935 22.908L28.1875 26.103C28.7195 26.634 29.4275 26.929 30.1795 26.929C30.9315 26.929 31.6395 26.636 32.1715 26.103C33.2695 25.006 33.2695 23.218 32.1715 22.119Z" fill="black"/>
</svg>
