<svg width="33" height="32" viewBox="0 0 33 32" fill="none" xmlns="http://www.w3.org/2000/svg">
<path d="M32.2059 31.211H27.6429V12.959H32.2059V31.211Z" fill="#D9002C"/>
<path d="M24.5999 31.211H20.0369V21.07H24.5999V31.211Z" fill="#FFC900"/>
<path d="M16.9949 31.211H12.4319V12.959H16.9949V31.211Z" fill="#00D474"/>
<path d="M9.38892 31.211H4.82593V21.07H9.38892V31.211Z" fill="#8539FF"/>
<path d="M9.13605 10.9294C9.13605 12.0484 8.22805 12.9584 7.10805 12.9584C5.98805 12.9584 5.08005 12.0484 5.08005 10.9294C5.08005 9.80841 5.98805 8.90041 7.10805 8.90041C8.22805 8.90041 9.13605 9.80841 9.13605 10.9294Z" fill="#8539FF"/>
<path d="M16.7414 2.81612C16.7414 3.93712 15.8334 4.84512 14.7134 4.84512C13.5934 4.84512 12.6854 3.93712 12.6854 2.81612C12.6854 1.69712 13.5934 0.789124 14.7134 0.789124C15.8334 0.789124 16.7414 1.69712 16.7414 2.81612Z" fill="#00D474"/>
<path d="M24.347 10.9294C24.347 12.0484 23.439 12.9584 22.319 12.9584C21.199 12.9584 20.291 12.0484 20.291 10.9294C20.291 9.80841 21.199 8.90041 22.319 8.90041C23.439 8.90041 24.347 9.80841 24.347 10.9294Z" fill="#FFC900"/>
<path d="M31.9519 2.81612C31.9519 3.93712 31.0449 4.84512 29.9249 4.84512C28.8049 4.84512 27.8959 3.93712 27.8959 2.81612C27.8959 1.69712 28.8049 0.789124 29.9249 0.789124C31.0449 0.789124 31.9519 1.69712 31.9519 2.81612Z" fill="#D9002C"/>
<path d="M31.4169 30.422H28.4319V13.746H31.4169V30.422ZM23.8119 30.422H20.8259V21.859H23.8119V30.422ZM16.2059 30.422H13.2209V13.746H16.2059V30.422ZM8.59993 30.422H5.61494V21.859H8.59993V30.422ZM32.2059 12.168H27.6429C27.2069 12.168 26.8539 12.521 26.8539 12.959V30.422H25.3889V21.07C25.3889 20.634 25.0359 20.281 24.5999 20.281H20.0369C19.6009 20.281 19.2479 20.634 19.2479 21.07V30.422H17.7839V12.959C17.7839 12.521 17.4309 12.168 16.9949 12.168H12.4319C11.9959 12.168 11.6429 12.521 11.6429 12.959V30.422H10.1789V21.07C10.1789 20.634 9.82593 20.281 9.38893 20.281H4.82593C4.38993 20.281 4.03693 20.634 4.03693 21.07V30.422H2.57294V0.789001C2.57294 0.353001 2.21994 0 1.78394 0C1.34794 0 0.994934 0.353001 0.994934 0.789001V31.211C0.994934 31.646 1.34794 32 1.78394 32H4.82593H9.38893H12.4319H16.9949H20.0369H24.5999H27.6429H32.2059C32.6419 32 32.9949 31.646 32.9949 31.211V12.959C32.9949 12.521 32.6419 12.168 32.2059 12.168Z" fill="black"/>
<path d="M7.10765 9.68922C7.79165 9.68922 8.34665 10.2462 8.34665 10.9292C8.34665 11.6132 7.79165 12.1682 7.10765 12.1682C6.42465 12.1682 5.86865 11.6132 5.86865 10.9292C5.86865 10.2462 6.42465 9.68922 7.10765 9.68922ZM14.7126 1.57822C15.3966 1.57822 15.9516 2.13222 15.9516 2.81622C15.9516 3.50022 15.3966 4.05622 14.7126 4.05622C14.0296 4.05622 13.4736 3.50022 13.4736 2.81622C13.4736 2.13222 14.0296 1.57822 14.7126 1.57822ZM22.3186 9.68922C23.0026 9.68922 23.5576 10.2462 23.5576 10.9292C23.5576 11.6132 23.0026 12.1682 22.3186 12.1682C21.6356 12.1682 21.0796 11.6132 21.0796 10.9292C21.0796 10.2462 21.6356 9.68922 22.3186 9.68922ZM29.9246 1.57822C30.6076 1.57822 31.1636 2.13222 31.1636 2.81622C31.1636 3.50022 30.6076 4.05622 29.9246 4.05622C29.2406 4.05622 28.6856 3.50022 28.6856 2.81622C28.6856 2.13222 29.2406 1.57822 29.9246 1.57822ZM7.10765 13.7462C8.66065 13.7462 9.92465 12.4822 9.92465 10.9292C9.92465 10.4062 9.78165 9.91622 9.53165 9.49622L13.4406 5.32822C13.8226 5.52322 14.2546 5.63222 14.7126 5.63222C15.1716 5.63222 15.6036 5.52322 15.9866 5.32822L19.8946 9.49622C19.6456 9.91622 19.5016 10.4062 19.5016 10.9292C19.5016 12.4822 20.7646 13.7462 22.3186 13.7462C23.8726 13.7462 25.1356 12.4822 25.1356 10.9292C25.1356 10.4062 24.9916 9.91622 24.7426 9.49622L28.6506 5.32822C29.0336 5.52322 29.4666 5.63222 29.9246 5.63222C31.4776 5.63222 32.7416 4.36922 32.7416 2.81622C32.7416 1.26322 31.4776 0.000219345 29.9246 0.000219345C28.3706 0.000219345 27.1076 1.26322 27.1076 2.81622C27.1076 3.33922 27.2506 3.82822 27.5006 4.24822L23.5916 8.41822C23.2096 8.22222 22.7766 8.11122 22.3186 8.11122C21.8606 8.11122 21.4286 8.22222 21.0456 8.41822L17.1376 4.24822C17.3866 3.82822 17.5306 3.33922 17.5306 2.81622C17.5306 1.26322 16.2666 0.000219345 14.7126 0.000219345C13.1596 0.000219345 11.8966 1.26322 11.8966 2.81622C11.8966 3.33922 12.0396 3.82822 12.2886 4.24822L8.38065 8.41822C7.99865 8.22222 7.56565 8.11122 7.10765 8.11122C5.55465 8.11122 4.29065 9.37522 4.29065 10.9292C4.29065 12.4822 5.55465 13.7462 7.10765 13.7462Z" fill="black"/>
</svg>
