<svg width="32" height="32" viewBox="0 0 32 32" fill="none" xmlns="http://www.w3.org/2000/svg">
<g clip-path="url(#clip0)">
<path d="M27.445 8.90201H4.556L13.973 19.043H18.028L27.445 8.90201Z" fill="#00D474"/>
<path d="M29.486 6.70301C30.435 5.68201 30.07 4.84601 28.675 4.84601H3.32399C1.92899 4.84601 1.56499 5.68201 2.51299 6.70301L4.55499 8.90201H27.445L29.486 6.70301Z" fill="white"/>
<path d="M21.07 27.156H18.028V19.043H13.972V27.156H10.93C9.80999 27.156 8.90298 28.064 8.90298 29.183C8.90298 30.304 9.80999 31.21 10.93 31.21H21.07C22.19 31.21 23.098 30.304 23.098 29.183C23.099 28.064 22.19 27.156 21.07 27.156Z" fill="white"/>
<path d="M30.684 5.07599C30.518 4.69499 30.036 4.05599 28.676 4.05599H23.807L26.516 1.34699C26.825 1.03799 26.825 0.537994 26.516 0.231994C26.208 -0.0770059 25.709 -0.0770059 25.401 0.231994L21.576 4.05599H3.32399C1.96499 4.05599 1.48299 4.69499 1.31699 5.07599C1.15099 5.45699 1.01199 6.24399 1.93599 7.23999L3.97799 9.43899L13.184 19.354V26.368H10.93C9.37699 26.368 8.11399 27.632 8.11399 29.184C8.11399 30.736 9.37699 32 10.93 32H21.07C22.624 32 23.887 30.736 23.887 29.184C23.887 27.632 22.623 26.368 21.07 26.368H18.817V19.354L28.023 9.43899L30.064 7.23999C30.989 6.24399 30.85 5.45699 30.684 5.07599ZM21.07 27.945C21.754 27.945 22.309 28.5 22.309 29.183C22.309 29.866 21.753 30.421 21.07 30.421H10.93C10.246 30.421 9.69098 29.866 9.69098 29.183C9.69098 28.5 10.247 27.945 10.93 27.945H13.973C14.409 27.945 14.761 27.591 14.761 27.156V19.832H17.24V27.156C17.24 27.592 17.594 27.945 18.029 27.945H21.07ZM17.685 18.254H14.317L6.36498 9.69099H25.635L17.685 18.254ZM28.908 6.16599L27.1 8.11299H4.89999L3.09199 6.16599C2.88499 5.94299 2.81299 5.79199 2.78799 5.71599C2.85899 5.68499 3.01999 5.63399 3.32399 5.63399H28.676C28.981 5.63399 29.141 5.68499 29.213 5.71599C29.188 5.79199 29.115 5.94299 28.908 6.16599Z" fill="black"/>
</g>
<defs>
<clipPath id="clip0">
<rect width="32" height="32" fill="white"/>
</clipPath>
</defs>
</svg>
