<svg width="146" height="43" viewBox="0 0 146 43" fill="none" xmlns="http://www.w3.org/2000/svg">
<g clip-path="url(#clip0)">
<path d="M27.8096 0.357422H35.0789C36.5188 0.357422 37.5921 0.41731 38.2988 0.537085C38.9788 0.646025 39.6267 0.902164 40.1974 1.28759C40.7699 1.68248 41.2467 2.2006 41.5927 2.8039C41.9681 3.44906 42.161 4.18417 42.1508 4.93055C42.1534 5.76585 41.9132 6.5839 41.4594 7.28519C41.0056 7.98647 40.3577 8.54075 39.5947 8.8806C40.699 9.20425 41.551 9.75428 42.1508 10.5307C42.7486 11.3181 43.0629 12.2844 43.0427 13.2728C43.04 14.1111 42.8424 14.9373 42.4655 15.6861C42.1088 16.4346 41.5667 17.0794 40.8906 17.5592C40.2237 18.0273 39.4027 18.3148 38.4275 18.4219C37.8159 18.4881 36.3395 18.5306 33.9984 18.5493H27.8096V0.357422ZM31.4818 3.38367V7.58855H33.8939C35.3253 7.58855 36.2142 7.56774 36.5608 7.52611C37.1886 7.45221 37.6825 7.23517 38.0427 6.87499C38.4029 6.51482 38.583 6.04124 38.583 5.45425C38.6047 4.95518 38.4388 4.46607 38.1179 4.08321C37.807 3.73152 37.347 3.51873 36.7341 3.4461C36.3705 3.40448 35.3244 3.38367 33.5957 3.38367H31.4818ZM31.4818 10.6173V15.4797H34.8814C36.204 15.4797 37.0433 15.4428 37.3992 15.3689C37.9139 15.2863 38.3847 15.03 38.7333 14.6426C39.0731 14.2578 39.243 13.743 39.243 13.0982C39.2584 12.6048 39.1194 12.1188 38.8455 11.7081C38.5627 11.3148 38.1605 11.0234 37.6987 10.8773C37.1983 10.7074 36.1127 10.6224 34.4418 10.6224L31.4818 10.6173Z" fill="#297CE8"/>
<path d="M52.4075 14.3504L55.881 14.9339C55.435 16.2082 54.73 17.1778 53.7658 17.843C52.8017 18.5081 51.5963 18.8411 50.1496 18.8419C47.856 18.8419 46.1605 18.0931 45.063 16.5955C44.1957 15.3961 43.7616 13.8827 43.7607 12.0555C43.7607 9.87152 44.3312 8.16154 45.472 6.92556C46.6128 5.68958 48.0569 5.07116 49.8043 5.07031C51.7649 5.07031 53.3118 5.71761 54.445 7.0122C55.5782 8.3068 56.118 10.2899 56.0645 12.9615H47.3336C47.3574 13.9944 47.6386 14.7985 48.1771 15.3736C48.4308 15.6528 48.7415 15.8743 49.0881 16.0232C49.4348 16.172 49.8094 16.2446 50.1866 16.2362C50.6836 16.2522 51.1707 16.0945 51.564 15.7902C51.9361 15.4921 52.2172 15.0121 52.4075 14.3504ZM52.6063 10.831C52.5808 9.82183 52.3204 9.05476 51.8252 8.52978C51.5865 8.27792 51.2983 8.0781 50.9788 7.94289C50.6592 7.80767 50.3151 7.73998 49.9681 7.74405C49.6212 7.74811 49.2788 7.82386 48.9624 7.96653C48.6461 8.1092 48.3627 8.31571 48.13 8.57311C47.6331 9.12441 47.3897 9.87705 47.3999 10.831H52.6063Z" fill="#297CE8"/>
<path d="M55.5547 5.36816H59.2639L62.415 14.7221L65.4935 5.36816H69.0995L64.4474 18.0478L63.6153 20.3414C63.3863 20.9573 63.0934 21.5475 62.7412 22.1023C62.4848 22.4861 62.161 22.8202 61.7856 23.0886C61.3808 23.3612 60.9315 23.5609 60.4578 23.6785C59.8749 23.8259 59.2752 23.8966 58.6739 23.8888C58.0109 23.89 57.3496 23.8199 56.7015 23.6798L56.3918 20.9505C56.8774 21.0512 57.3715 21.1049 57.8674 21.111C58.6778 21.111 59.2775 20.8736 59.6666 20.3987C60.0859 19.8605 60.3895 19.2415 60.5585 18.5804L55.5547 5.36816Z" fill="#297CE8"/>
<path d="M68.7471 11.7702C68.7519 10.5968 69.046 9.44269 69.6033 8.4101C70.1426 7.35858 70.9863 6.49401 72.0243 5.92922C73.1011 5.35075 74.3075 5.05606 75.5297 5.07295C77.5225 5.07295 79.1561 5.72025 80.4303 7.01485C81.7045 8.30944 82.3416 9.9451 82.3416 11.9218C82.3416 13.9147 81.6985 15.5665 80.4124 16.8772C79.1263 18.1879 77.5089 18.8429 75.5603 18.842C74.3605 18.8434 73.1772 18.5628 72.1059 18.0227C71.0402 17.5063 70.1651 16.666 69.6059 15.6221C69.0333 14.5688 68.7471 13.2848 68.7471 11.7702ZM72.3149 11.9562C72.3149 13.2636 72.6249 14.2642 73.245 14.9583C73.5305 15.2861 73.883 15.5488 74.2786 15.7289C74.6742 15.909 75.1039 16.0022 75.5386 16.0022C75.9733 16.0022 76.4029 15.909 76.7986 15.7289C77.1942 15.5488 77.5467 15.2861 77.8322 14.9583C78.4472 14.2642 78.7551 13.2555 78.756 11.932C78.756 10.6417 78.448 9.64906 77.8322 8.95419C77.5467 8.62639 77.1942 8.3636 76.7986 8.18352C76.4029 8.00344 75.9733 7.91027 75.5386 7.91027C75.1039 7.91027 74.6742 8.00344 74.2786 8.18352C73.883 8.3636 73.5305 8.62639 73.245 8.95419C72.6283 9.64821 72.3199 10.6489 72.3199 11.9562H72.3149Z" fill="#297CE8"/>
<path d="M95.5328 18.5432H92.0466V11.8192C92.0466 10.3972 91.9722 9.4772 91.8236 9.05926C91.6922 8.6649 91.4376 8.32319 91.0973 8.08449C90.7397 7.8469 90.3173 7.72583 89.8881 7.73791C89.3079 7.73088 88.7398 7.90407 88.2622 8.23358C87.7976 8.54984 87.4525 9.01289 87.2823 9.54856C87.1048 10.0956 87.016 11.1048 87.016 12.5761V18.5432H83.5234V5.36789H86.7612V7.30341C87.9105 5.81513 89.3584 5.07057 91.1049 5.06972C91.8292 5.06093 92.5473 5.20282 93.2137 5.48639C93.7786 5.70946 94.2764 6.07463 94.6587 6.54653C94.9876 6.98058 95.2204 7.47965 95.3417 8.01059C95.4699 8.55595 95.5341 9.33746 95.5341 10.3551L95.5328 18.5432Z" fill="#297CE8"/>
<path d="M109.75 18.5442H106.513V16.6087C106.027 17.3169 105.374 17.8942 104.612 18.2893C103.927 18.646 103.168 18.8355 102.397 18.8424C100.883 18.8424 99.5869 18.2324 98.5081 17.0126C97.4293 15.7927 96.8882 14.0908 96.8848 11.9068C96.8848 9.67358 97.4102 7.97464 98.461 6.81001C99.5118 5.64538 100.84 5.06562 102.445 5.07072C103.917 5.07072 105.191 5.68276 106.268 6.90685V0.357422H109.754L109.75 18.5442ZM100.449 11.6711C100.449 13.0778 100.643 14.0972 101.031 14.7292C101.594 15.639 102.38 16.0939 103.388 16.0939C104.191 16.0939 104.874 15.7541 105.436 15.0745C105.998 14.3949 106.28 13.3756 106.28 12.0164C106.28 10.5027 106.006 9.41279 105.46 8.74681C105.212 8.429 104.894 8.17335 104.53 8.00015C104.166 7.82696 103.767 7.741 103.364 7.7491C102.966 7.74454 102.571 7.831 102.211 8.00191C101.851 8.17282 101.534 8.42366 101.286 8.73534C100.726 9.38603 100.446 10.3646 100.446 11.6711H100.449Z" fill="#297CE8"/>
<path d="M111.767 18.5442V0.357422H115.443V7.51847H122.638V0.357422H126.31V18.5442H122.634V10.5919H115.443V18.5442H111.767Z" fill="#297CE8"/>
<path d="M143.06 16.236C143.963 16.8826 144.953 17.4003 145.999 17.774L144.647 20.367C144.083 20.1972 143.538 19.9687 143.021 19.6853C142.907 19.6266 142.092 19.0889 140.579 18.0721C139.328 18.6049 137.98 18.8709 136.621 18.8532C133.825 18.8532 131.635 18.0305 130.051 16.3851C128.467 14.7396 127.675 12.4278 127.675 9.44955C127.675 6.48065 128.469 4.17093 130.056 2.52041C131.644 0.869887 133.799 0.0450496 136.522 0.0458991C139.218 0.0458991 141.356 0.870736 142.935 2.52041C144.514 4.17008 145.304 6.4798 145.305 9.44955C145.305 11.0219 145.086 12.4032 144.647 13.5933C144.281 14.5624 143.743 15.4576 143.06 16.236ZM140.106 14.1641C140.597 13.576 140.958 12.8914 141.167 12.1547C141.416 11.2749 141.534 10.3636 141.52 9.44955C141.52 7.34966 141.057 5.78026 140.131 4.74135C139.206 3.70245 137.994 3.18385 136.496 3.18555C134.999 3.18555 133.786 3.7067 132.856 4.749C131.926 5.7913 131.458 7.35858 131.454 9.45083C131.454 11.5745 131.921 13.1647 132.856 14.2215C133.29 14.7306 133.832 15.1367 134.442 15.4102C135.053 15.6837 135.716 15.8178 136.385 15.8028C136.897 15.8074 137.405 15.7211 137.886 15.5479C137.178 15.0759 136.416 14.6908 135.616 14.4011L136.645 12.3051C137.89 12.7376 139.058 13.3651 140.106 14.1641Z" fill="#297CE8"/>
<path d="M20.0123 0H0.621374C-0.0412138 0 -0.20049 0.382262 0.268419 0.852445L3.88335 4.4661C4.35098 4.93501 5.27606 5.31854 5.93864 5.31854H7.31097C7.97355 5.31854 8.89863 5.7008 9.36626 6.16971L17.957 14.7591C18.4246 15.2281 18.8081 16.1531 18.8081 16.8157V18.1868C18.8081 18.8494 19.1904 19.7744 19.6593 20.2433L23.2742 23.8583C23.7431 24.3259 24.1254 24.1679 24.1254 23.5053V1.20667C24.1254 0.887086 23.9986 0.580549 23.7729 0.354327C23.5471 0.128104 23.2409 0.00067495 22.9213 0L20.0123 0Z" fill="#297CE8"/>
<g opacity="0.8">
<path opacity="0.8" d="M17.8832 7.44602C17.8822 7.12709 17.755 6.82153 17.5293 6.59614C17.3037 6.37074 16.998 6.24384 16.6791 6.24316H3.82232C3.16101 6.24316 3.00173 6.62543 3.47064 7.09561L17.032 20.6608C17.5009 21.1297 17.8832 20.9705 17.8832 20.3079V7.44602Z" fill="url(#paint0_linear)"/>
</g>
</g>
<defs>
<linearGradient id="paint0_linear" x1="6.89189" y1="16.7363" x2="28.5802" y2="-1.96019" gradientUnits="userSpaceOnUse">
<stop stop-color="#7CBFFC"/>
<stop offset="1" stop-color="#3367BE"/>
</linearGradient>
<clipPath id="clip0">
<rect width="146" height="42.7" fill="white"/>
</clipPath>
</defs>
</svg>
