<svg width="32" height="32" viewBox="0 0 32 32" fill="none" xmlns="http://www.w3.org/2000/svg">
<g clip-path="url(#clip0_86_1335)">
<path d="M16 0.78894C12.621 3.77094 8.18497 5.57994 3.32397 5.57994V18.8599C3.32397 25.6829 16 31.2119 16 31.2119C16 31.2119 28.675 25.6829 28.675 18.8599V5.57994C23.816 5.57994 19.377 3.77094 16 0.78894Z" fill="#00BFEA"/>
<path d="M15.9998 25.127C21.0405 25.127 25.1268 21.0407 25.1268 16C25.1268 10.9593 21.0405 6.87299 15.9998 6.87299C10.9591 6.87299 6.8728 10.9593 6.8728 16C6.8728 21.0407 10.9591 25.127 15.9998 25.127Z" fill="white"/>
<path d="M17.6889 14.311V10.93H14.3099V14.311H10.9299V17.69H14.3099V21.07H17.6889V17.69H21.0699V14.311H17.6889Z" fill="#D9002C"/>
<path d="M28.6759 4.79097C24.1939 4.79097 19.8769 3.15997 16.5219 0.19797C16.2899 -0.00803009 15.9579 -0.0580301 15.6769 0.0699699C15.5989 0.10397 15.5309 0.15097 15.4699 0.20597C12.1139 3.16297 7.80191 4.79097 3.32391 4.79097C2.88791 4.79097 2.53491 5.14497 2.53491 5.57997V18.86C2.53491 26.116 15.1479 31.7 15.6859 31.934C15.7859 31.979 15.8929 32 15.9999 32C16.1069 32 16.2149 31.979 16.3159 31.935C16.8509 31.701 29.4639 26.117 29.4639 18.861V5.57997C29.4649 5.14497 29.1109 4.79097 28.6759 4.79097ZM27.8869 18.86C27.8869 22.041 24.6329 25.006 21.9029 26.935C19.4049 28.701 16.8699 29.939 16.0009 30.344C15.1339 29.941 12.6149 28.71 10.1179 26.948C7.37891 25.016 4.11391 22.046 4.11391 18.859V6.35397C8.46691 6.18197 12.6379 4.59397 15.9999 1.82597C19.3609 4.59397 23.5329 6.18097 27.8859 6.35297V18.86H27.8869Z" fill="black"/>
<path d="M6.08398 16C6.08398 21.468 10.532 25.916 16.001 25.916C21.467 25.916 25.917 21.468 25.917 16C25.917 10.533 21.468 6.08496 16.001 6.08496C10.532 6.08496 6.08398 10.533 6.08398 16ZM24.338 16C24.338 20.598 20.598 24.338 16.001 24.338C11.403 24.338 7.66298 20.598 7.66298 16C7.66298 11.403 11.403 7.66296 16.001 7.66296C20.598 7.66296 24.338 11.403 24.338 16Z" fill="black"/>
</g>
<defs>
<clipPath id="clip0_86_1335">
<rect width="32" height="32" fill="white"/>
</clipPath>
</defs>
</svg>
