<svg width="32" height="32" viewBox="0 0 32 32" fill="none" xmlns="http://www.w3.org/2000/svg">
<path d="M21.07 28.676C21.07 30.071 19.929 31.211 18.535 31.211H3.324C1.93 31.211 0.789001 30.07 0.789001 28.676V3.324C0.789001 1.929 1.93 0.789001 3.324 0.789001H18.535C19.93 0.789001 21.07 1.93 21.07 3.324V28.676Z" fill="#E0E0E0"/>
<path d="M18.535 32H3.324C1.492 32 0 30.509 0 28.676V3.324C0 1.491 1.492 0 3.324 0H18.535C20.368 0 21.859 1.491 21.859 3.324V28.676C21.859 30.509 20.368 32 18.535 32ZM3.324 1.578C2.361 1.578 1.578 2.361 1.578 3.324V28.676C1.578 29.639 2.361 30.422 3.324 30.422H18.535C19.498 30.422 20.281 29.639 20.281 28.676V3.324C20.281 2.361 19.498 1.578 18.535 1.578H3.324Z" fill="black"/>
<path d="M15.348 4.576H6.512L5.25 0.789001H16.61L15.348 4.576Z" fill="#4F4F4F"/>
<path d="M15.348 5.364H6.512C6.172 5.364 5.871 5.147 5.763 4.825L4.501 1.038C4.421 0.798 4.461 0.533 4.609 0.327C4.757 0.121 4.996 0 5.25 0H16.61C16.863 0 17.101 0.121 17.25 0.327C17.399 0.533 17.438 0.798 17.358 1.038L16.096 4.825C15.989 5.147 15.688 5.364 15.348 5.364ZM7.081 3.787H14.78L15.516 1.578H6.344L7.081 3.787Z" fill="black"/>
<path d="M14.986 7.88699V24.112V28.168L19.042 24.112H31.211V7.88699H14.986Z" fill="#D9002C"/>
<path d="M14.986 28.957C14.884 28.957 14.782 28.937 14.684 28.897C14.39 28.775 14.197 28.487 14.197 28.168V7.88699C14.197 7.45099 14.55 7.09799 14.986 7.09799H31.211C31.646 7.09799 32 7.45099 32 7.88699V24.113C32 24.549 31.646 24.902 31.211 24.902H19.369L15.544 28.727C15.393 28.877 15.191 28.957 14.986 28.957ZM15.774 8.67599V26.264L18.484 23.555C18.632 23.407 18.833 23.324 19.042 23.324H30.422V8.67599H15.774Z" fill="black"/>
<path d="M23.099 14.761C22.663 14.761 22.31 14.407 22.31 13.972V11.944C22.31 11.508 22.664 11.155 23.099 11.155C23.534 11.155 23.888 11.509 23.888 11.944V13.972C23.888 14.407 23.534 14.761 23.099 14.761Z" fill="white"/>
<path d="M23.099 20.846C22.663 20.846 22.31 20.492 22.31 20.057V18.028C22.31 17.592 22.664 17.24 23.099 17.24C23.534 17.24 23.888 17.593 23.888 18.028V20.057C23.888 20.492 23.534 20.846 23.099 20.846Z" fill="white"/>
<path d="M21.664 15.354C21.463 15.354 21.261 15.277 21.106 15.123L19.672 13.689C19.363 13.38 19.363 12.881 19.672 12.574C19.98 12.265 20.48 12.265 20.787 12.574L22.222 14.008C22.53 14.317 22.53 14.816 22.222 15.123C22.068 15.277 21.866 15.354 21.664 15.354Z" fill="white"/>
<path d="M25.967 19.657C25.765 19.657 25.563 19.58 25.409 19.426L23.974 17.992C23.666 17.683 23.666 17.183 23.974 16.876C24.283 16.568 24.782 16.568 25.09 16.876L26.524 18.311C26.833 18.619 26.833 19.119 26.524 19.426C26.37 19.58 26.169 19.657 25.967 19.657Z" fill="white"/>
<path d="M21.07 16.789H19.042C18.606 16.789 18.253 16.435 18.253 16C18.253 15.565 18.607 15.211 19.042 15.211H21.07C21.506 15.211 21.859 15.565 21.859 16C21.859 16.435 21.506 16.789 21.07 16.789Z" fill="white"/>
<path d="M27.155 16.789H25.127C24.691 16.789 24.338 16.435 24.338 16C24.338 15.565 24.692 15.211 25.127 15.211H27.155C27.591 15.211 27.943 15.565 27.943 16C27.943 16.435 27.591 16.789 27.155 16.789Z" fill="white"/>
<path d="M20.23 19.656C20.028 19.656 19.826 19.58 19.672 19.426C19.363 19.117 19.363 18.618 19.672 18.311L21.106 16.876C21.415 16.568 21.914 16.568 22.222 16.876C22.53 17.184 22.53 17.684 22.222 17.992L20.787 19.426C20.634 19.58 20.433 19.656 20.23 19.656Z" fill="white"/>
<path d="M24.532 15.354C24.331 15.354 24.129 15.277 23.974 15.123C23.666 14.815 23.666 14.316 23.974 14.008L25.409 12.574C25.717 12.265 26.217 12.265 26.524 12.574C26.833 12.882 26.833 13.381 26.524 13.689L25.09 15.123C24.937 15.277 24.734 15.354 24.532 15.354Z" fill="white"/>
<path d="M23.099 18.535C24.499 18.535 25.634 17.4 25.634 16C25.634 14.6 24.499 13.465 23.099 13.465C21.699 13.465 20.564 14.6 20.564 16C20.564 17.4 21.699 18.535 23.099 18.535Z" fill="#D9002C"/>
<path d="M23.099 19.324C21.266 19.324 19.775 17.833 19.775 16C19.775 14.167 21.266 12.676 23.099 12.676C24.932 12.676 26.423 14.167 26.423 16C26.423 17.833 24.932 19.324 23.099 19.324ZM23.099 14.254C22.136 14.254 21.353 15.037 21.353 16C21.353 16.963 22.136 17.746 23.099 17.746C24.062 17.746 24.845 16.963 24.845 16C24.845 15.037 24.062 14.254 23.099 14.254Z" fill="white"/>
</svg>
