<svg width="32" height="32" viewBox="0 0 32 32" fill="none" xmlns="http://www.w3.org/2000/svg">
<path d="M22.085 12.96C25.4457 12.96 28.17 10.2357 28.17 6.87501C28.17 3.51436 25.4457 0.790009 22.085 0.790009C18.7243 0.790009 16 3.51436 16 6.87501C16 10.2357 18.7243 12.96 22.085 12.96Z" fill="white"/>
<path d="M22.084 12.959C17.044 12.959 12.958 17.045 12.958 22.086V25.127H31.211V22.086C31.211 17.045 27.125 12.959 22.084 12.959Z" fill="#00D474"/>
<path d="M9.916 12.959C13.2761 12.959 16 10.2351 16 6.87502C16 3.51492 13.2761 0.791016 9.916 0.791016C6.5559 0.791016 3.832 3.51492 3.832 6.87502C3.832 10.2351 6.5559 12.959 9.916 12.959Z" fill="white"/>
<path d="M9.91601 12.959C4.87501 12.959 0.790009 17.045 0.790009 22.086V25.127H19.044V22.086C19.043 17.045 14.956 12.959 9.91601 12.959Z" fill="#FF0034"/>
<path d="M16 19.043C19.3601 19.043 22.084 16.3191 22.084 12.959C22.084 9.5989 19.3601 6.875 16 6.875C12.6399 6.875 9.91602 9.5989 9.91602 12.959C9.91602 16.3191 12.6399 19.043 16 19.043Z" fill="white"/>
<path d="M16 19.043C10.959 19.043 6.87302 23.129 6.87302 28.17V31.211H25.127V28.17C25.127 23.129 21.041 19.043 16 19.043Z" fill="#00BFEA"/>
<path d="M25.563 12.801C27.594 11.604 28.958 9.397 28.958 6.875C28.957 3.084 25.875 0 22.084 0C19.447 0 17.152 1.494 16 3.68C14.848 1.494 12.553 0 9.916 0C6.126 0 3.042 3.084 3.042 6.875C3.042 9.396 4.407 11.604 6.437 12.801C2.68 14.213 0 17.842 0 22.086V25.127C0 25.563 0.353 25.916 0.789 25.916H6.343C6.174 26.641 6.085 27.395 6.085 28.17V31.211C6.084 31.648 6.438 32 6.873 32H25.127C25.563 32 25.916 31.648 25.916 31.211V28.17C25.916 27.395 25.826 26.641 25.658 25.916H31.211C31.647 25.916 32 25.562 32 25.127V22.086C32 17.842 29.32 14.213 25.563 12.801ZM16 7.662C18.92 7.662 21.295 10.039 21.295 12.959C21.295 15.879 18.92 18.254 16 18.254C13.08 18.254 10.705 15.879 10.705 12.959C10.705 10.039 13.08 7.662 16 7.662ZM22.084 1.578C25.004 1.578 27.381 3.955 27.381 6.875C27.381 9.543 25.395 11.758 22.822 12.117C22.439 8.998 19.961 6.519 16.841 6.137C17.201 3.564 19.414 1.578 22.084 1.578ZM4.62 6.875C4.62 3.955 6.995 1.578 9.915 1.578C12.584 1.578 14.798 3.564 15.158 6.137C12.039 6.52 9.56 8.998 9.178 12.117C6.606 11.758 4.62 9.543 4.62 6.875ZM1.578 24.338V22.086C1.578 17.736 4.924 14.156 9.176 13.781C9.436 15.955 10.716 17.82 12.522 18.885C9.967 19.846 7.91 21.83 6.855 24.338H1.578ZM24.338 30.422H7.662V28.17C7.662 23.572 11.402 19.832 16 19.832C20.598 19.832 24.338 23.572 24.338 28.17V30.422ZM30.422 24.338H25.145C24.092 21.83 22.034 19.846 19.479 18.885C21.286 17.821 22.565 15.955 22.825 13.781C27.077 14.156 30.423 17.736 30.423 22.086V24.338H30.422Z" fill="black"/>
</svg>
