<svg width="32" height="32" viewBox="0 0 32 32" fill="none" xmlns="http://www.w3.org/2000/svg">
<path d="M19.7669 9.34092L9.33862 19.7692L12.2307 22.6613L22.659 12.233L19.7669 9.34092Z" fill="#BEBEBE"/>
<path d="M1.388 20.492C0.589 21.29 0.589 22.585 1.388 23.383L8.617 30.612C9.416 31.41 10.711 31.41 11.51 30.612C12.307 29.813 12.307 28.519 11.51 27.72L4.28 20.491C3.479 19.693 2.187 19.693 1.388 20.492Z" fill="#4F4F4F"/>
<path d="M2.833 16.154C2.034 16.953 2.034 18.247 2.833 19.046L12.954 29.166C13.753 29.965 15.047 29.965 15.845 29.166C16.644 28.367 16.644 27.073 15.845 26.275L5.724 16.154C4.927 15.355 3.632 15.355 2.833 16.154Z" fill="#4F4F4F"/>
<path d="M30.612 11.509C31.411 10.71 31.411 9.41599 30.612 8.61699L23.382 1.38799C22.584 0.58999 21.29 0.58999 20.491 1.38799C19.692 2.18699 19.692 3.48099 20.491 4.27999L27.72 11.509C28.519 12.307 29.813 12.307 30.612 11.509Z" fill="#4F4F4F"/>
<path d="M29.166 15.846C29.964 15.047 29.964 13.753 29.166 12.954L19.046 2.83399C18.247 2.03499 16.952 2.03499 16.153 2.83399C15.354 3.63299 15.354 4.92699 16.153 5.72599L26.274 15.846C27.073 16.645 28.367 16.645 29.166 15.846Z" fill="#4F4F4F"/>
<path d="M2.11 26.998C1.311 27.797 1.311 29.091 2.11 29.889C2.909 30.688 4.203 30.688 5.001 29.889L6.448 28.444L3.555 25.553L2.11 26.998Z" fill="#BEBEBE"/>
<path d="M26.997 2.11101L25.552 3.55601L28.443 6.44801L29.888 5.00301C29.889 5.00301 29.889 5.00201 29.89 5.00201C30.688 4.20401 30.687 2.90901 29.89 2.11101C29.091 1.31301 27.796 1.31301 26.997 2.11101Z" fill="#BEBEBE"/>
<path d="M31.999 10.063C31.999 9.306 31.704 8.594 31.169 8.059L29.559 6.449L30.437 5.572C30.44 5.568 30.443 5.565 30.447 5.561C31.552 4.456 31.552 2.659 30.447 1.553C29.912 1.018 29.201 0.723 28.443 0.723C27.687 0.723 26.976 1.018 26.44 1.553C26.435 1.557 26.431 1.561 26.427 1.566L25.552 2.442L23.94 0.83C23.405 0.295 22.694 0 21.937 0C21.181 0 20.468 0.295 19.933 0.83C19.603 1.16 19.372 1.553 19.24 1.969C18.764 1.629 18.197 1.446 17.599 1.446C16.843 1.446 16.131 1.741 15.595 2.276C14.491 3.381 14.491 5.178 15.595 6.284L18.653 9.341L9.34 18.654L6.283 15.597C5.748 15.062 5.037 14.767 4.279 14.767C3.523 14.767 2.81 15.062 2.275 15.598C1.285 16.587 1.183 18.134 1.968 19.24C1.542 19.376 1.154 19.611 0.828999 19.935C-0.275001 21.04 -0.275001 22.837 0.828999 23.943L2.44 25.553L1.551 26.441C1.016 26.976 0.720999 27.688 0.720999 28.445C0.720999 29.202 1.016 29.914 1.551 30.449C2.086 30.984 2.798 31.279 3.555 31.279C4.305 31.279 5.012 30.989 5.545 30.463C5.549 30.458 5.555 30.453 5.559 30.449L6.448 29.561L8.057 31.171C8.593 31.705 9.306 32 10.062 32C10.82 32 11.531 31.705 12.066 31.17C12.396 30.84 12.627 30.448 12.759 30.031C13.236 30.371 13.804 30.554 14.4 30.554C15.157 30.554 15.869 30.259 16.404 29.724C16.939 29.189 17.234 28.477 17.234 27.72C17.234 26.963 16.939 26.251 16.404 25.716L13.347 22.659L22.66 13.346L25.717 16.403C26.252 16.938 26.965 17.232 27.721 17.232C28.479 17.232 29.19 16.938 29.725 16.403C30.26 15.868 30.555 15.156 30.555 14.399C30.555 13.803 30.371 13.236 30.034 12.76C30.458 12.624 30.847 12.389 31.171 12.065C31.704 11.531 31.999 10.819 31.999 10.063ZM4.456 29.32C4.452 29.324 4.448 29.328 4.444 29.332C4.206 29.568 3.891 29.699 3.555 29.699C3.219 29.699 2.905 29.568 2.667 29.331C2.429 29.094 2.3 28.779 2.3 28.443C2.3 28.107 2.431 27.793 2.668 27.555L3.556 26.667L5.331 28.442L4.456 29.32ZM26.667 3.557L27.554 2.67C27.558 2.666 27.562 2.662 27.565 2.659C27.801 2.428 28.113 2.301 28.443 2.301C28.779 2.301 29.095 2.432 29.332 2.668C29.818 3.156 29.822 3.946 29.34 4.437C29.338 4.44 29.334 4.443 29.332 4.446L28.443 5.333L27.556 4.445L26.667 3.557ZM10.95 30.055C10.713 30.291 10.397 30.422 10.061 30.422C9.726 30.422 9.411 30.291 9.174 30.055L1.944 22.826C1.456 22.336 1.456 21.539 1.944 21.05C2.182 20.813 2.497 20.682 2.833 20.682C3.168 20.682 3.483 20.813 3.72 21.049L10.954 28.283C11.439 28.773 11.438 29.566 10.95 30.055ZM15.655 27.721C15.655 28.057 15.524 28.371 15.288 28.609C15.05 28.846 14.735 28.977 14.399 28.977C14.063 28.977 13.749 28.846 13.51 28.609L12.073 27.172C12.07 27.168 12.068 27.166 12.064 27.162L4.835 19.933C4.835 19.933 4.833 19.933 4.833 19.932L3.389 18.488C2.9 17.998 2.9 17.201 3.389 16.713C3.626 16.475 3.942 16.344 4.277 16.344C4.613 16.344 4.927 16.475 5.166 16.712L8.779 20.326C8.779 20.326 8.779 20.326 8.78 20.326L10.226 21.772L15.287 26.832C15.524 27.07 15.655 27.385 15.655 27.721ZM12.231 21.545L11.342 20.656L10.453 19.768L19.767 10.455L21.542 12.231L12.231 21.545ZM28.608 15.288C28.37 15.525 28.055 15.656 27.719 15.656C27.384 15.656 27.069 15.525 26.832 15.288L23.219 11.676C23.219 11.675 23.217 11.674 23.217 11.674L20.324 8.781L16.711 5.168C16.221 4.678 16.221 3.881 16.711 3.392C16.947 3.155 17.264 3.024 17.598 3.024C17.934 3.024 18.25 3.155 18.487 3.392L19.928 4.833C19.93 4.834 19.931 4.836 19.932 4.838L27.162 12.067C27.162 12.068 27.163 12.069 27.164 12.069L28.607 13.512C28.843 13.75 28.974 14.065 28.974 14.401C28.976 14.735 28.845 15.051 28.608 15.288ZM30.054 10.951C29.818 11.187 29.501 11.318 29.166 11.318C28.831 11.318 28.517 11.187 28.278 10.951L21.047 3.72C20.56 3.23 20.56 2.435 21.05 1.946C21.286 1.71 21.602 1.579 21.937 1.579C22.273 1.579 22.587 1.71 22.826 1.946L27.163 6.284L27.887 7.007L30.055 9.176C30.292 9.413 30.422 9.729 30.422 10.064C30.421 10.398 30.291 10.713 30.054 10.951Z" fill="black"/>
</svg>
