<svg width="32" height="32" viewBox="0 0 32 32" fill="none" xmlns="http://www.w3.org/2000/svg">
<g clip-path="url(#clip0)">
<path d="M25.449 28.824L28.631 25.643L23.857 12.914L17.43 19.343L25.449 28.824Z" fill="#FFC900"/>
<path d="M8.38 18.847L12.658 14.57L8.38 18.847L3.176 17.688L0.789 20.075L7.86 24.14C6.542 22.821 6.775 20.452 8.38 18.847Z" fill="#FFC900"/>
<path d="M6.357 3.36801L3.175 6.55101L12.658 14.569L19.086 8.14201L6.357 3.36801Z" fill="#FFC900"/>
<path d="M7.86 24.14L11.925 31.211L14.312 28.824L13.152 23.62C11.548 25.225 9.179 25.457 7.86 24.14Z" fill="#FFC900"/>
<path d="M24.576 12.197L23.857 12.914L24.576 12.197Z" fill="white"/>
<path d="M17.43 19.343L13.153 23.62L17.43 19.343Z" fill="white"/>
<path d="M13.153 23.62L17.43 19.343L23.858 12.914L24.577 12.197L30.223 6.55C31.541 5.233 31.541 3.096 30.223 1.778C28.905 0.461003 26.768 0.461003 25.45 1.778L19.087 8.142L12.659 14.57L8.38 18.847C6.776 20.452 6.543 22.822 7.86 24.14C9.179 25.457 11.548 25.225 13.153 23.62Z" fill="white"/>
<path d="M25.135 12.753L30.78 7.108C31.566 6.321 32 5.276 32 4.164C32 3.052 31.566 2.006 30.779 1.22C29.994 0.433 28.947 0 27.836 0C26.723 0 25.678 0.433 24.891 1.22L18.887 7.225L6.634 2.63C6.344 2.522 6.018 2.592 5.799 2.811L2.617 5.992C2.461 6.148 2.378 6.362 2.387 6.583C2.396 6.804 2.497 7.011 2.666 7.152L11.493 14.618L10.748 15.363L8.128 17.982L3.347 16.918C3.083 16.858 2.808 16.939 2.618 17.13L0.231001 19.517C0.0580009 19.69 -0.0249992 19.935 0.00700084 20.178C0.0390008 20.421 0.183001 20.636 0.396001 20.758L7.283 24.718L11.242 31.605C11.364 31.818 11.579 31.961 11.822 31.994C11.857 31.998 11.892 32 11.926 32C12.134 32 12.335 31.918 12.484 31.769L14.87 29.383C15.061 29.192 15.141 28.917 15.082 28.654L14.017 23.872L14.11 23.779L17.381 20.508L24.846 29.335C24.989 29.504 25.196 29.605 25.416 29.614C25.428 29.614 25.437 29.614 25.449 29.614C25.658 29.614 25.859 29.531 26.008 29.384L29.19 26.202C29.409 25.983 29.479 25.656 29.37 25.367L24.776 13.114L25.133 12.757C25.135 12.755 25.135 12.754 25.135 12.753ZM26.008 2.335C26.496 1.847 27.145 1.578 27.836 1.578C28.527 1.578 29.176 1.847 29.664 2.335C30.152 2.823 30.422 3.473 30.422 4.164C30.422 4.854 30.152 5.504 29.664 5.992L17.867 17.791L16.885 18.772C16.881 18.776 16.877 18.78 16.873 18.784L12.595 23.062C12.594 23.063 12.592 23.065 12.59 23.066C12.566 23.091 12.54 23.115 12.514 23.139C12.493 23.159 12.472 23.179 12.451 23.2C12.425 23.223 12.399 23.245 12.373 23.267C12.352 23.286 12.33 23.305 12.308 23.324C12.282 23.346 12.254 23.367 12.227 23.388C12.205 23.406 12.183 23.423 12.161 23.441C12.134 23.462 12.105 23.481 12.078 23.502C12.056 23.519 12.034 23.535 12.011 23.551C11.983 23.571 11.953 23.589 11.925 23.608C11.903 23.623 11.88 23.638 11.857 23.652C11.828 23.671 11.797 23.688 11.768 23.706C11.746 23.719 11.723 23.733 11.7 23.746C11.67 23.763 11.639 23.778 11.609 23.795C11.586 23.807 11.564 23.819 11.54 23.831C11.509 23.847 11.478 23.861 11.447 23.876C11.424 23.887 11.401 23.897 11.378 23.908C11.346 23.922 11.314 23.934 11.282 23.948C11.259 23.958 11.236 23.968 11.213 23.976C11.181 23.989 11.148 23.999 11.115 24.011C11.092 24.02 11.07 24.029 11.047 24.035C11.014 24.047 10.981 24.056 10.947 24.065C10.925 24.072 10.902 24.08 10.879 24.086C10.845 24.095 10.812 24.103 10.778 24.111C10.755 24.116 10.733 24.123 10.71 24.128C10.676 24.136 10.642 24.142 10.607 24.148C10.585 24.153 10.563 24.158 10.54 24.162C10.505 24.168 10.469 24.172 10.434 24.177C10.413 24.18 10.392 24.184 10.371 24.186C10.331 24.191 10.292 24.193 10.252 24.196C10.235 24.198 10.218 24.2 10.202 24.201C10.145 24.204 10.089 24.206 10.033 24.206C9.581 24.206 8.933 24.098 8.418 23.583C7.951 23.115 7.734 22.439 7.809 21.679C7.819 21.576 7.834 21.475 7.854 21.373C7.993 20.661 8.371 19.973 8.937 19.406L19.643 8.699L26.008 2.335ZM4.34 6.502L6.556 4.285L17.66 8.45L12.613 13.498L4.34 6.502ZM2.075 19.903L3.427 18.551L6.987 19.344C6.98 19.357 6.972 19.368 6.965 19.381C6.957 19.394 6.95 19.406 6.942 19.42C6.907 19.478 6.874 19.537 6.841 19.596C6.841 19.597 6.84 19.598 6.84 19.599C6.807 19.66 6.776 19.72 6.746 19.781C6.739 19.795 6.733 19.808 6.726 19.822C6.697 19.883 6.668 19.944 6.642 20.005C6.639 20.012 6.637 20.019 6.634 20.025C6.609 20.082 6.586 20.139 6.563 20.197C6.558 20.21 6.553 20.223 6.547 20.237C6.524 20.299 6.501 20.36 6.48 20.423C6.476 20.434 6.473 20.445 6.469 20.456C6.45 20.512 6.433 20.568 6.416 20.625C6.413 20.637 6.409 20.648 6.405 20.66C6.387 20.723 6.37 20.786 6.355 20.849C6.352 20.863 6.349 20.876 6.345 20.89C6.331 20.949 6.319 21.006 6.307 21.065C6.306 21.074 6.304 21.082 6.302 21.089C6.29 21.153 6.279 21.218 6.269 21.282C6.267 21.297 6.265 21.311 6.263 21.327C6.254 21.392 6.245 21.458 6.239 21.523C6.232 21.595 6.227 21.667 6.223 21.738C6.222 21.761 6.222 21.784 6.221 21.806C6.219 21.855 6.218 21.903 6.218 21.952C6.218 21.978 6.218 22.004 6.218 22.03C6.219 22.075 6.22 22.12 6.222 22.165C6.223 22.19 6.224 22.217 6.226 22.243C6.227 22.259 6.227 22.275 6.228 22.291L2.075 19.903ZM12.097 29.925L9.708 25.771C9.736 25.773 9.764 25.774 9.792 25.776C9.812 25.777 9.831 25.778 9.851 25.779C9.912 25.782 9.972 25.783 10.033 25.783C10.106 25.783 10.179 25.781 10.253 25.777C10.272 25.776 10.292 25.775 10.311 25.774C10.377 25.77 10.443 25.764 10.509 25.757C10.517 25.757 10.525 25.756 10.532 25.755C10.605 25.747 10.677 25.736 10.75 25.726C10.769 25.723 10.788 25.719 10.807 25.716C10.869 25.705 10.931 25.694 10.993 25.681C11.005 25.678 11.018 25.676 11.03 25.673C11.102 25.657 11.174 25.64 11.245 25.621C11.263 25.616 11.28 25.611 11.298 25.606C11.358 25.589 11.417 25.572 11.476 25.553C11.491 25.548 11.506 25.543 11.521 25.538C11.591 25.515 11.662 25.49 11.731 25.464C11.747 25.458 11.763 25.451 11.779 25.445C11.837 25.423 11.894 25.399 11.951 25.375C11.968 25.368 11.984 25.361 12.001 25.354C12.07 25.324 12.138 25.292 12.206 25.259C12.22 25.252 12.233 25.245 12.247 25.238C12.304 25.21 12.36 25.179 12.416 25.149C12.433 25.139 12.451 25.13 12.468 25.121C12.531 25.086 12.593 25.05 12.656 25.012L13.449 28.573L12.097 29.925ZM25.498 27.66L18.502 19.388L23.549 14.339L27.713 25.444L25.498 27.66Z" fill="black"/>
</g>
<defs>
<clipPath id="clip0">
<rect width="32" height="32" fill="white"/>
</clipPath>
</defs>
</svg>
