<svg width="32" height="32" viewBox="0 0 32 32" fill="none" xmlns="http://www.w3.org/2000/svg">
<path d="M6.87399 8.90201C6.87399 11.142 8.68899 12.959 10.93 12.959C13.171 12.959 14.987 11.143 14.987 8.90201H6.87399Z" fill="#BEBEBE"/>
<path d="M10.929 12.959C9.80999 12.959 8.90199 13.867 8.90199 14.986V29.183C8.90199 30.304 9.80999 31.21 10.929 31.21C12.05 31.21 12.958 30.304 12.958 29.183V14.986C12.958 13.867 12.05 12.959 10.929 12.959Z" fill="#FF9600"/>
<path d="M19.043 19.043V29.184C19.043 30.305 19.951 31.211 21.07 31.211C22.191 31.211 23.099 30.305 23.099 29.184V19.043H19.043Z" fill="#FF9600"/>
<path d="M19.043 0.789001V6.875V19.043H25.127V6.875C25.127 3.514 22.402 0.789001 19.043 0.789001Z" fill="#BEBEBE"/>
<path d="M14.986 0C14.55 0 14.197 0.354 14.197 0.789V8.113H11.718V0.789C11.718 0.354 11.365 0 10.929 0C10.493 0 10.14 0.354 10.14 0.789V8.113H7.663V0.789C7.663 0.354 7.309 0 6.874 0C6.437 0 6.084 0.354 6.084 0.789V8.902C6.084 10.785 7.164 12.42 8.737 13.22C8.346 13.704 8.112 14.318 8.112 14.986V29.183C8.112 30.736 9.376 31.999 10.928 31.999C12.482 31.999 13.745 30.735 13.745 29.183V14.986C13.745 14.318 13.512 13.705 13.121 13.22C14.693 12.419 15.773 10.784 15.773 8.902V0.789C15.775 0.354 15.421 0 14.986 0ZM12.169 14.986V29.183C12.169 29.867 11.612 30.421 10.929 30.421C10.246 30.421 9.691 29.866 9.691 29.183V14.986C9.691 14.302 10.247 13.748 10.929 13.748C11.613 13.748 12.169 14.303 12.169 14.986ZM10.929 12.17C9.4 12.17 8.113 11.113 7.759 9.691H14.101C13.748 11.113 12.459 12.17 10.929 12.17Z" fill="black"/>
<path d="M19.043 0C18.607 0 18.254 0.354 18.254 0.789V19.043V29.184C18.254 30.737 19.518 32 21.07 32C22.622 32 23.888 30.736 23.888 29.184V19.832H25.126C25.562 19.832 25.915 19.478 25.915 19.043V6.875C25.916 3.084 22.832 0 19.043 0ZM22.311 29.184C22.311 29.868 21.754 30.422 21.071 30.422C20.388 30.422 19.833 29.867 19.833 29.184V19.832H22.312V29.184H22.311ZM24.338 18.254H23.1H19.832V1.637C22.379 2.02 24.338 4.223 24.338 6.875V18.254Z" fill="black"/>
</svg>
