<svg width="32" height="32" viewBox="0 0 32 32" fill="none" xmlns="http://www.w3.org/2000/svg">
<path d="M28.17 12.959H3.83102V31.211H28.17V12.959Z" fill="#FFC900"/>
<path d="M21.071 25.127H10.93V31.211H21.071V25.127Z" fill="#FF9600"/>
<path d="M22.084 17.016H18.029V21.071H22.084V17.016Z" fill="#00BFEA"/>
<path d="M13.972 17.016H9.91602V21.071H13.972V17.016Z" fill="#00BFEA"/>
<path d="M20.564 0.789001H15.493V4.846H20.564V0.789001Z" fill="#FF0034"/>
<path d="M28.17 8.90201H3.83101C2.71101 8.90201 1.80301 9.81001 1.80301 10.929C1.80301 12.05 2.71101 12.958 3.83101 12.958H28.17C29.289 12.958 30.197 12.05 30.197 10.929C30.197 9.81101 29.289 8.90201 28.17 8.90201Z" fill="#FF9600"/>
<path d="M30.197 30.422H28.959V13.635C30.129 13.293 30.986 12.209 30.986 10.93C30.986 9.377 29.722 8.114 28.17 8.114H16.282V5.635H20.565C21.001 5.635 21.352 5.281 21.352 4.846V0.789C21.352 0.354 21 0 20.564 0H15.493C15.057 0 14.704 0.354 14.704 0.789V4.846V8.114H3.83101C2.27801 8.114 1.01401 9.378 1.01401 10.93C1.01401 12.209 1.87101 13.293 3.04201 13.635V30.422H1.80301C1.36701 30.422 1.01401 30.776 1.01401 31.211C1.01401 31.648 1.36701 32 1.80301 32H3.83101H10.93H21.07H28.17H30.197C30.633 32 30.986 31.648 30.986 31.211C30.986 30.775 30.633 30.422 30.197 30.422ZM16.282 1.578H19.776V4.057H16.282V1.578ZM2.59201 10.93C2.59201 10.246 3.14801 9.692 3.83101 9.692H28.17C28.852 9.692 29.408 10.247 29.408 10.93C29.408 11.613 28.851 12.17 28.17 12.17H3.83101C3.14801 12.17 2.59201 11.613 2.59201 10.93ZM11.719 25.916H15.211V30.422H11.719V25.916ZM16.789 30.422V25.916H20.281V30.422H16.789ZM21.859 30.422V25.916H22.084C22.52 25.916 22.873 25.562 22.873 25.127C22.873 24.692 22.519 24.338 22.084 24.338H21.07H10.93H9.91601C9.48001 24.338 9.12701 24.692 9.12701 25.127C9.12701 25.562 9.48101 25.916 9.91601 25.916H10.141V30.422H4.62001V13.748H27.381V30.422H21.859Z" fill="black"/>
<path d="M22.084 16.227H18.029C17.591 16.227 17.239 16.579 17.239 17.016V21.071C17.239 21.507 17.592 21.86 18.029 21.86H22.084C22.52 21.86 22.873 21.506 22.873 21.071V17.016C22.873 16.578 22.52 16.227 22.084 16.227ZM21.295 20.281H18.816V17.804H21.295V20.281Z" fill="black"/>
<path d="M13.972 16.227H9.91601C9.48001 16.227 9.12701 16.579 9.12701 17.016V21.071C9.12701 21.507 9.48101 21.86 9.91601 21.86H13.972C14.408 21.86 14.761 21.506 14.761 21.071V17.016C14.761 16.578 14.408 16.227 13.972 16.227ZM13.183 20.281H10.704V17.804H13.183V20.281Z" fill="black"/>
</svg>
