<svg width="33" height="32" viewBox="0 0 33 32" fill="none" xmlns="http://www.w3.org/2000/svg">
<g clip-path="url(#clip0_879_149)">
<path d="M3.64092 20.392C1.16592 22.867 1.16592 26.88 3.64092 29.355C6.11592 31.831 10.1289 31.831 12.6039 29.355L16.9949 24.964L8.03192 16L3.64092 20.392Z" fill="#76E2F8"/>
<path d="M8.12192 32C6.21792 32 4.42892 31.259 3.08192 29.913C0.302922 27.134 0.303922 22.612 3.08192 19.834L7.47392 15.442C7.62192 15.294 7.82292 15.211 8.03192 15.211C8.24092 15.211 8.44192 15.294 8.58992 15.442L17.5529 24.405C17.8619 24.714 17.8619 25.213 17.5529 25.521L13.1619 29.913C11.8149 31.259 10.0259 32 8.12192 32ZM8.03192 17.116L4.19792 20.949C2.03492 23.112 2.03492 26.634 4.19792 28.797C5.24592 29.845 6.63892 30.422 8.12192 30.422C9.60492 30.422 10.9979 29.845 12.0459 28.797L15.8789 24.964L8.03192 17.116Z" fill="black"/>
<path d="M30.3489 11.608C32.8249 9.13299 32.8249 5.11999 30.3489 2.64499C27.8739 0.168985 23.8609 0.169986 21.3859 2.64499L16.9949 7.03699L25.9589 16L30.3489 11.608Z" fill="#76E2F8"/>
<path d="M25.9589 16.789C25.7569 16.789 25.5549 16.712 25.3999 16.558L16.4369 7.595C16.2889 7.448 16.2059 7.246 16.2059 7.037C16.2059 6.828 16.2889 6.627 16.4369 6.479L20.8289 2.088C22.1749 0.741 23.9649 0 25.8689 0C27.7709 0 29.5609 0.741 30.9079 2.087C33.6859 4.866 33.6859 9.387 30.9079 12.166L26.5159 16.557C26.3619 16.712 26.1599 16.789 25.9589 16.789ZM18.1109 7.037L25.9589 14.884L29.7919 11.051C31.9549 8.887 31.9549 5.367 29.7919 3.203C28.7439 2.155 27.3509 1.578 25.8689 1.578C24.3869 1.578 22.9919 2.155 21.9439 3.203L18.1109 7.037Z" fill="black"/>
<path d="M16.9948 24.9647L25.9587 16.0008L16.9955 7.03759L8.0316 16.0015L16.9948 24.9647Z" fill="#00BFEA"/>
<path d="M16.9949 25.753C16.7859 25.753 16.5849 25.669 16.4369 25.522L7.47392 16.558C7.16592 16.25 7.16592 15.75 7.47392 15.443L16.4369 6.47999C16.7449 6.17199 17.2449 6.17199 17.5519 6.47999L26.5159 15.443C26.6629 15.59 26.7469 15.792 26.7469 16.001C26.7469 16.21 26.6629 16.411 26.5159 16.559L17.5519 25.523C17.4049 25.669 17.2049 25.753 16.9949 25.753ZM9.14792 16L16.9949 23.848L24.8429 16L16.9949 8.15299L9.14792 16Z" fill="black"/>
<path d="M8.07693 22.839C7.86893 22.839 7.66593 22.755 7.51893 22.609C7.37193 22.463 7.28793 22.258 7.28793 22.05C7.28793 21.843 7.37193 21.639 7.51893 21.492C7.66493 21.346 7.86893 21.261 8.07693 21.261C8.28493 21.261 8.48793 21.346 8.63493 21.492C8.78193 21.638 8.86593 21.843 8.86593 22.05C8.86593 22.258 8.78293 22.462 8.63493 22.609C8.48793 22.755 8.28493 22.839 8.07693 22.839Z" fill="black"/>
<path d="M10.9449 25.708C10.7369 25.708 10.5339 25.623 10.3869 25.477C10.2399 25.33 10.1559 25.126 10.1559 24.919C10.1559 24.711 10.2389 24.507 10.3869 24.36C10.5329 24.214 10.7369 24.13 10.9449 24.13C11.1529 24.13 11.3559 24.214 11.5029 24.36C11.6489 24.506 11.7339 24.711 11.7339 24.919C11.7339 25.126 11.6499 25.329 11.5029 25.477C11.3559 25.623 11.1529 25.708 10.9449 25.708Z" fill="black"/>
<path d="M5.20892 25.708C5.00092 25.708 4.79692 25.623 4.65092 25.476C4.50392 25.33 4.41992 25.126 4.41992 24.919C4.41992 24.711 4.50392 24.507 4.65092 24.36C4.79692 24.214 5.00092 24.13 5.20892 24.13C5.41692 24.13 5.61992 24.214 5.76692 24.36C5.91292 24.507 5.99792 24.711 5.99792 24.919C5.99792 25.126 5.91292 25.329 5.76692 25.476C5.61992 25.623 5.41592 25.708 5.20892 25.708Z" fill="black"/>
<path d="M8.07693 28.575C7.86893 28.575 7.66593 28.491 7.51893 28.345C7.37193 28.198 7.28793 27.994 7.28793 27.786C7.28793 27.579 7.37193 27.376 7.51893 27.228C7.66493 27.081 7.86893 26.997 8.07693 26.997C8.28493 26.997 8.48793 27.081 8.63493 27.228C8.78193 27.375 8.86593 27.579 8.86593 27.786C8.86593 27.994 8.78293 28.197 8.63493 28.345C8.48793 28.491 8.28493 28.575 8.07693 28.575Z" fill="black"/>
<path d="M25.9139 5.00299C25.7059 5.00299 25.5029 4.91799 25.3549 4.77199C25.2089 4.62599 25.1249 4.42199 25.1249 4.21399C25.1249 4.00599 25.2089 3.80299 25.3549 3.65599C25.5019 3.50899 25.7059 3.42499 25.9139 3.42499C26.1209 3.42499 26.3239 3.50899 26.4709 3.65599C26.6179 3.80299 26.7029 4.00599 26.7029 4.21399C26.7029 4.42199 26.6179 4.62499 26.4709 4.77199C26.3239 4.91799 26.1209 5.00299 25.9139 5.00299Z" fill="black"/>
<path d="M28.7809 7.871C28.5739 7.871 28.3709 7.788 28.2229 7.64C28.0769 7.493 27.9919 7.29 27.9919 7.082C27.9919 6.874 28.0769 6.671 28.2229 6.524C28.3699 6.378 28.5739 6.293 28.7809 6.293C28.9889 6.293 29.1919 6.377 29.3399 6.524C29.4859 6.671 29.5699 6.874 29.5699 7.082C29.5699 7.29 29.4859 7.493 29.3399 7.64C29.1919 7.787 28.9889 7.871 28.7809 7.871Z" fill="black"/>
<path d="M23.0459 7.871C22.8379 7.871 22.6339 7.788 22.4879 7.64C22.3409 7.493 22.2559 7.29 22.2559 7.082C22.2559 6.874 22.3409 6.671 22.4879 6.524C22.6339 6.378 22.8379 6.293 23.0459 6.293C23.2539 6.293 23.4569 6.377 23.6039 6.524C23.7499 6.671 23.8339 6.874 23.8339 7.082C23.8339 7.29 23.7499 7.493 23.6039 7.64C23.4569 7.787 23.2539 7.871 23.0459 7.871Z" fill="black"/>
<path d="M25.9139 10.739C25.7059 10.739 25.5029 10.655 25.3549 10.508C25.2089 10.361 25.1249 10.158 25.1249 9.95001C25.1249 9.74201 25.2089 9.53901 25.3549 9.39201C25.5009 9.24501 25.7059 9.16101 25.9139 9.16101C26.1209 9.16101 26.3239 9.24501 26.4709 9.39201C26.6179 9.53801 26.7029 9.74201 26.7029 9.95001C26.7029 10.158 26.6179 10.361 26.4709 10.508C26.3239 10.655 26.1209 10.739 25.9139 10.739Z" fill="black"/>
<path d="M15.0739 17.922L12.1799 17.022L14.6539 15.272L14.6149 12.242L17.0439 14.055L19.9139 13.082L18.9399 15.951L20.7529 18.38L17.7229 18.341L15.9739 20.815L15.0739 17.922Z" fill="#FFC900"/>
<path d="M15.9739 21.604C15.9329 21.604 15.8909 21.601 15.8499 21.594C15.5529 21.547 15.3089 21.336 15.2199 21.049L14.4439 18.551L11.9459 17.775C11.6589 17.686 11.4479 17.442 11.4009 17.145C11.3539 16.848 11.4799 16.551 11.7249 16.377L13.8609 14.867L13.8269 12.252C13.8229 11.952 13.9899 11.675 14.2579 11.539C14.5259 11.403 14.8469 11.43 15.0879 11.61L17.1839 13.174L19.6609 12.334C19.9459 12.238 20.2609 12.312 20.4729 12.523C20.6849 12.735 20.7589 13.05 20.6619 13.335L19.8219 15.812L21.3849 17.908C21.5649 18.149 21.5919 18.471 21.4559 18.738C21.3189 19.006 21.0449 19.174 20.7429 19.169L18.1279 19.136L16.6179 21.271C16.4679 21.481 16.2269 21.604 15.9739 21.604ZM13.9409 16.743L15.3079 17.168C15.5559 17.245 15.7499 17.439 15.8269 17.688L16.2519 19.055L17.0789 17.886C17.2279 17.674 17.4729 17.548 17.7329 17.552L19.1639 17.571L18.3089 16.424C18.1539 16.216 18.1109 15.945 18.1939 15.699L18.6539 14.343L17.2979 14.803C17.0529 14.886 16.7809 14.844 16.5729 14.688L15.4259 13.832L15.4449 15.264C15.4479 15.523 15.3229 15.768 15.1119 15.918L13.9409 16.743Z" fill="black"/>
</g>
<defs>
<clipPath id="clip0_879_149">
<rect width="32" height="32" fill="white" transform="translate(0.994934)"/>
</clipPath>
</defs>
</svg>
